<svg xmlns="http://www.w3.org/2000/svg" width="435" height="73" viewBox="0 0 435 73">
  <defs>
    <style>
      .cls-1 {
        fill: #f9f9f9;
      }

      .cls-1, .cls-2, .cls-3 {
        fill-rule: evenodd;
      }

      .cls-2 {
        fill: #ffa700;
      }

      .cls-3 {
        fill: #ed8c17;
      }
    </style>
  </defs>
  <path id="Designs" class="cls-1" d="M320.351,23.248h-7.4V43h7.4c6.3,0,10.354-4.024,10.354-9.876C330.705,27.243,326.653,23.248,320.351,23.248Zm-2.589,15.588V27.356h2.279c3.63,0,5.768,2.138,5.768,5.768s-2.138,5.712-5.768,5.712h-2.279Zm22.571-7.907a2.714,2.714,0,0,1,2.954,2.7h-6.021A2.975,2.975,0,0,1,340.333,30.929Zm7.513,6.866h-5.121a2.559,2.559,0,0,1-2.5,1.519,2.911,2.911,0,0,1-2.982-3.011h10.889a12.216,12.216,0,0,0,.084-1.407,7.4,7.4,0,0,0-7.822-7.822c-4.671,0-7.934,3.1-7.934,8.075s3.32,8.075,7.934,8.075A7.339,7.339,0,0,0,347.846,37.795Zm15.648,0.647c-0.084-5.853-8.582-4.08-8.582-6.584,0-.76.619-1.21,1.745-1.21a2.07,2.07,0,0,1,2.307,1.773h4.446c-0.31-3.1-2.561-5.346-6.612-5.346-4.108,0-6.388,2.195-6.388,4.868,0,5.768,8.554,3.939,8.554,6.472,0,0.7-.647,1.266-1.885,1.266a2.2,2.2,0,0,1-2.42-1.829H349.9c0.225,3.039,3.039,5.374,7.231,5.374C361.074,43.225,363.494,41.171,363.494,38.442ZM366.453,43h4.811V27.3h-4.811V43Zm2.419-17.332A2.615,2.615,0,1,0,366,23.079,2.648,2.648,0,0,0,368.872,25.668Zm4.926,9.454c0,4.952,3.067,8.1,6.922,8.1a5.554,5.554,0,0,0,4.84-2.476v2.223c0,2.645-1.435,3.6-3.264,3.6-1.66,0-2.842-.76-3.151-1.941h-4.756c0.422,3.742,3.461,6.106,8.132,6.106,5.43,0,7.85-3.573,7.85-7.766V27.3H385.56v2.223a5.44,5.44,0,0,0-4.84-2.448C376.865,27.074,373.8,30.169,373.8,35.122ZM385.56,35.15c0,2.5-1.6,3.883-3.433,3.883-1.8,0-3.433-1.407-3.433-3.911s1.632-3.855,3.433-3.855C383.956,31.267,385.56,32.646,385.56,35.15ZM404.7,43h4.783V33.827c0-4.221-2.42-6.7-6.05-6.7a5.758,5.758,0,0,0-4.755,2.251V27.3h-4.811V43h4.811V34.474c0-2.138,1.182-3.32,3.011-3.32s3.011,1.182,3.011,3.32V43Zm20.882-4.558C425.5,32.589,417,34.362,417,31.858c0-.76.619-1.21,1.745-1.21a2.07,2.07,0,0,1,2.307,1.773H425.5c-0.31-3.1-2.561-5.346-6.613-5.346-4.108,0-6.387,2.195-6.387,4.868,0,5.768,8.554,3.939,8.554,6.472,0,0.7-.647,1.266-1.885,1.266a2.2,2.2,0,0,1-2.42-1.829H411.99c0.225,3.039,3.039,5.374,7.231,5.374C423.16,43.225,425.58,41.171,425.58,38.442Z"/>
  <path id="Visual_" data-name="Visual " class="cls-2" d="M225.82,38.16l-4.9-14.913H215.8L222.809,43h6.022l7.006-19.752h-5.093ZM237.84,43h4.811V27.3H237.84V43Zm2.42-17.332a2.615,2.615,0,1,0-2.87-2.589A2.648,2.648,0,0,0,240.26,25.668Zm18.629,12.774c-0.085-5.853-8.582-4.08-8.582-6.584,0-.76.619-1.21,1.744-1.21a2.069,2.069,0,0,1,2.307,1.773H258.8c-0.309-3.1-2.56-5.346-6.612-5.346-4.108,0-6.387,2.195-6.387,4.868,0,5.768,8.553,3.939,8.553,6.472,0,0.7-.647,1.266-1.885,1.266a2.2,2.2,0,0,1-2.42-1.829H245.3c0.225,3.039,3.039,5.374,7.232,5.374C256.469,43.225,258.889,41.171,258.889,38.442ZM277.35,27.3h-4.811v8.526c0,2.138-1.182,3.32-3.039,3.32-1.8,0-3.01-1.182-3.01-3.32V27.3h-4.784v9.173c0,4.192,2.448,6.7,6.078,6.7a5.721,5.721,0,0,0,4.755-2.307V43h4.811V27.3Zm2.509,7.822c0,4.952,3.067,8.1,6.894,8.1a5.554,5.554,0,0,0,4.868-2.448V43h4.811V27.3h-4.811v2.223a5.465,5.465,0,0,0-4.84-2.448C282.926,27.074,279.859,30.169,279.859,35.122Zm11.762,0.028c0,2.5-1.6,3.883-3.433,3.883-1.8,0-3.433-1.407-3.433-3.911s1.632-3.855,3.433-3.855C290.017,31.267,291.621,32.646,291.621,35.15ZM299.926,43h4.811V22.179h-4.811V43Z"/>
  <path id="Creative" class="cls-1" d="M86.618,33.1c0,5.909,4.108,10.045,9.933,10.045,4.7,0,8.244-2.617,9.37-6.894h-5.29a4.351,4.351,0,0,1-4.136,2.532c-2.954,0-4.98-2.195-4.98-5.684s2.026-5.684,4.98-5.684a4.351,4.351,0,0,1,4.136,2.532h5.29c-1.126-4.277-4.671-6.922-9.37-6.922C90.726,23.023,86.618,27.187,86.618,33.1Zm27.073,2.617c0-2.7,1.322-3.489,3.6-3.489h1.322V27.131a5.853,5.853,0,0,0-4.924,2.786V27.3H108.88V43h4.811V35.713Zm14.156-4.783a2.714,2.714,0,0,1,2.954,2.7H124.78A2.975,2.975,0,0,1,127.847,30.929Zm7.513,6.866h-5.121a2.559,2.559,0,0,1-2.505,1.519,2.911,2.911,0,0,1-2.982-3.011h10.889a12.216,12.216,0,0,0,.084-1.407,7.4,7.4,0,0,0-7.822-7.822c-4.671,0-7.935,3.1-7.935,8.075s3.321,8.075,7.935,8.075A7.339,7.339,0,0,0,135.36,37.795Zm1.945-2.673c0,4.952,3.067,8.1,6.894,8.1a5.554,5.554,0,0,0,4.868-2.448V43h4.811V27.3h-4.811v2.223a5.466,5.466,0,0,0-4.84-2.448C140.372,27.074,137.305,30.169,137.305,35.122Zm11.762,0.028c0,2.5-1.6,3.883-3.433,3.883-1.8,0-3.433-1.407-3.433-3.911s1.632-3.855,3.433-3.855C147.463,31.267,149.067,32.646,149.067,35.15Zm9.064,2.392c0,4.08,2.279,5.459,5.543,5.459h2.448V38.92h-1.716c-1.069,0-1.463-.394-1.463-1.322v-6.3h3.151v-4h-3.151V23.473h-4.812V27.3h-1.913v4h1.913v6.247ZM168.8,43h4.811V27.3H168.8V43Zm2.42-17.332a2.615,2.615,0,1,0-2.87-2.589A2.649,2.649,0,0,0,171.218,25.668Zm4.391,1.632L181.18,43h5.937l5.572-15.7h-5.121l-3.405,11.2-3.405-11.2h-5.149Zm26.031,3.63a2.715,2.715,0,0,1,2.955,2.7h-6.022A2.977,2.977,0,0,1,201.64,30.929Zm7.513,6.866h-5.121a2.559,2.559,0,0,1-2.5,1.519,2.911,2.911,0,0,1-2.983-3.011h10.889a12,12,0,0,0,.085-1.407,7.4,7.4,0,0,0-7.822-7.822c-4.671,0-7.935,3.1-7.935,8.075s3.32,8.075,7.935,8.075A7.338,7.338,0,0,0,209.153,37.795Z"/>
  <path class="cls-3" d="M40,73S20.06,74.473,9,60C-1.667,46.042,1,33,1,33s1.417-13.042,9-21C19.7,1.824,32.25.125,37,0S54.25,2.625,61,9,72.75,24.125,73,37c-3.75-6.958-18.543-13.047-29-9A25.16,25.16,0,0,0,28,50C27.7,56.385,30,67.5,40,73Z"/>
  <path class="cls-3" d="M71,48s-5.811-13.555-20-9C40.875,42.25,39.439,50.244,40,57c0.384,4.624,5.958,11.75,14,13C68.375,58.417,68.5,52.167,71,48Z"/>
</svg>
